<?xml version="1.0" encoding="UTF-8" standalone="no"?>
<svg
   width="40.64mm"
   height="128.5mm"
   viewBox="0 0 40.64 128.5"
   version="1.1"
   id="svg5"
   sodipodi:docname="CLC-ModulatorOne.svg"
   inkscape:version="1.3.2 (091e20e, 2023-11-25, custom)"
   xmlns:inkscape="http://www.inkscape.org/namespaces/inkscape"
   xmlns:sodipodi="http://sodipodi.sourceforge.net/DTD/sodipodi-0.dtd"
   xmlns="http://www.w3.org/2000/svg"
   xmlns:svg="http://www.w3.org/2000/svg">
  <defs
     id="defs5">
    <rect
       x="30.48927"
       y="345.91463"
       width="126.39188"
       height="38.250175"
       id="rect12" />
    <rect
       x="100.33742"
       y="150.7833"
       width="151.33765"
       height="18.847912"
       id="rect6" />
    <rect
       x="88.696059"
       y="154.66375"
       width="53.217635"
       height="21.065314"
       id="rect2" />
    <rect
       x="24.945766"
       y="174.62036"
       width="125.83753"
       height="24.945766"
       id="rect9" />
    <rect
       x="11.641358"
       y="8.3152554"
       width="130.82669"
       height="16.630511"
       id="rect7" />
    <rect
       x="11.641358"
       y="8.3152554"
       width="130.82669"
       height="16.630511"
       id="rect8" />
  </defs>
  <sodipodi:namedview
     id="namedview5"
     pagecolor="#ffffff"
     bordercolor="#000000"
     borderopacity="0.25"
     inkscape:showpageshadow="2"
     inkscape:pageopacity="0.0"
     inkscape:pagecheckerboard="0"
     inkscape:deskcolor="#d1d1d1"
     inkscape:document-units="mm"
     inkscape:zoom="1.8039133"
     inkscape:cx="-4.7119781"
     inkscape:cy="220.90862"
     inkscape:window-width="3440"
     inkscape:window-height="1417"
     inkscape:window-x="-8"
     inkscape:window-y="-8"
     inkscape:window-maximized="1"
     inkscape:current-layer="layer1" />
  <!-- Background -->
  <!-- Title -->
  <!-- MODE_PARAM knob -->
  <!-- RATE_PARAM knob -->
  <!-- RESET_INPUT port -->
  <!-- PHASE_CV_OUTPUT port -->
  <g
     inkscape:groupmode="layer"
     id="layer2"
     inkscape:label="panel">
    <rect
       x="0"
       y="0"
       width="40.64"
       height="128.5"
       fill="#2b2b2b"
       id="rect1"
       style="fill:#eaeaea;fill-opacity:1"
       inkscape:label="ONESHOT_CV_LABEL" />
    <rect
       style="display:inline;fill:#0b0b0b;fill-opacity:1;stroke-width:0.213843"
       id="rect17"
       width="8.7314367"
       height="8.9459457"
       x="15.954281"
       y="105.40424"
       inkscape:label="OUTPUT_SQUARE" />
    <path
       d="m 18.194374,37.354164 v -1.619196 q 0,-0.268717 0.0155,-0.516764 -0.08441,0.308336 -0.151584,0.482313 l -0.627008,1.653647 h -0.230822 l -0.63562,-1.653647 -0.09646,-0.292833 -0.05684,-0.18948 0.0052,0.191202 0.0069,0.325562 v 1.619196 H 16.13076 v -2.427071 h 0.43236 l 0.645956,1.68293 q 0.03445,0.10163 0.06546,0.218764 0.03273,0.11541 0.04306,0.167087 0.01378,-0.0689 0.05684,-0.208428 0.04479,-0.141249 0.06029,-0.177423 l 0.633898,-1.68293 h 0.422024 v 2.427071 z m 2.39951,-0.933621 q 0,0.489204 -0.215318,0.728638 -0.215319,0.239434 -0.625285,0.239434 -0.408244,0 -0.616673,-0.248047 -0.208428,-0.24977 -0.208428,-0.720025 0,-0.964628 0.835436,-0.964628 0.427192,0 0.62873,0.235989 0.201538,0.234267 0.201538,0.728639 z m -0.325561,0 q 0,-0.385851 -0.115411,-0.559829 -0.113688,-0.1757 -0.384128,-0.1757 -0.272163,0 -0.394464,0.179145 -0.120579,0.177423 -0.120579,0.556384 0,0.368625 0.118856,0.55466 0.120579,0.184313 0.377239,0.184313 0.279052,0 0.397908,-0.179145 0.120579,-0.179145 0.120579,-0.559828 z m 1.887913,0.633898 q -0.08613,0.179145 -0.229099,0.256659 -0.141249,0.07751 -0.3514,0.07751 -0.353122,0 -0.520209,-0.237712 -0.165365,-0.237711 -0.165365,-0.720025 0,-0.974963 0.685574,-0.974963 0.211874,0 0.353123,0.07752 0.141249,0.07751 0.227376,0.246324 h 0.0034 l -0.0034,-0.208428 v -0.773424 h 0.310059 v 2.172134 q 0,0.29111 0.01034,0.384128 h -0.296278 q -0.0052,-0.02756 -0.01206,-0.127468 -0.0052,-0.09991 -0.0052,-0.172255 z m -0.940511,-0.633898 q 0,0.391018 0.103353,0.559828 0.103353,0.16881 0.335897,0.16881 0.26355,0 0.382405,-0.18259 0.118856,-0.182591 0.118856,-0.566719 0,-0.370348 -0.118856,-0.542603 -0.118855,-0.172255 -0.37896,-0.172255 -0.234267,0 -0.339342,0.173978 -0.103353,0.172255 -0.103353,0.561551 z m 1.963705,0.06718 q 0,0.320394 0.132637,0.494372 0.132636,0.173977 0.387573,0.173977 0.201538,0 0.322117,-0.08096 0.122301,-0.08096 0.165365,-0.204983 l 0.272162,0.07751 q -0.167087,0.440972 -0.759644,0.440972 -0.413412,0 -0.630453,-0.246324 -0.215318,-0.246325 -0.215318,-0.732084 0,-0.461643 0.215318,-0.707967 0.217041,-0.246325 0.618395,-0.246325 0.821656,0 0.821656,0.990466 v 0.04134 z m 1.009414,-0.237712 q -0.02584,-0.294556 -0.149862,-0.428914 -0.124023,-0.136082 -0.356567,-0.136082 -0.225654,0 -0.35829,0.151585 -0.130914,0.149861 -0.141249,0.413411 z"
       id="text2"
       style="font-size:3.52778px;font-family:'Liberation Sans';-inkscape-font-specification:'Liberation Sans, Normal';text-anchor:middle"
       inkscape:label="MODE_LABEL"
       aria-label="Mode" />
    <path
       d="M 8.0177811,59.014736 7.3873282,58.007045 H 6.6311293 v 1.007691 H 6.3021224 v -2.427071 h 1.1420499 q 0.4099667,0 0.6321755,0.184313 0.2239313,0.18259 0.2239313,0.509874 0,0.27044 -0.1584745,0.454753 -0.1567519,0.184313 -0.4340823,0.232544 l 0.6890195,1.045587 z m -0.048231,-1.729439 q 0,-0.211873 -0.1446941,-0.322117 Q 7.6818841,56.851215 7.4114439,56.851215 H 6.6311293 v 0.895725 h 0.794095 q 0.2601049,0 0.4013539,-0.120578 0.1429715,-0.122301 0.1429715,-0.341065 z m 1.3039696,1.76389 q -0.2807754,0 -0.4220245,-0.148139 -0.141249,-0.148139 -0.141249,-0.406522 0,-0.289388 0.1894804,-0.444417 0.1912029,-0.15503 0.61495,-0.165365 l 0.4185793,-0.0069 v -0.10163 q 0,-0.227377 -0.096463,-0.325562 -0.096463,-0.09819 -0.3031686,-0.09819 -0.2084284,0 -0.3031686,0.07062 -0.09474,0.07062 -0.1136882,0.225654 l -0.3238392,-0.02928 q 0.079237,-0.502985 0.7475862,-0.502985 0.3514,0 0.5288226,0.16192 0.177422,0.160197 0.177422,0.465088 v 0.802708 q 0,0.137804 0.03617,0.208428 0.03617,0.0689 0.137804,0.0689 0.04479,0 0.10163,-0.01206 v 0.192926 q -0.117133,0.02756 -0.239434,0.02756 -0.172255,0 -0.251492,-0.08957 -0.077515,-0.09129 -0.08785,-0.28422 h -0.010335 q -0.1188558,0.213596 -0.2773303,0.303168 -0.156752,0.08785 -0.3824059,0.08785 z m 0.070624,-0.232544 q 0.1705324,0 0.3031686,-0.07751 0.1326363,-0.07751 0.2084284,-0.211873 0.077515,-0.136082 0.077515,-0.279053 v -0.153307 l -0.3393421,0.0069 q -0.2187637,0.0034 -0.3324519,0.04479 -0.1119657,0.04134 -0.1722549,0.127468 -0.060289,0.08613 -0.060289,0.225654 0,0.151584 0.08096,0.234267 0.082682,0.08268 0.2342666,0.08268 z m 2.1325152,0.184313 q -0.153306,0.04134 -0.313504,0.04134 -0.37207,0 -0.37207,-0.422025 v -1.24368 h -0.215319 v -0.225654 h 0.227377 l 0.09129,-0.416857 h 0.206706 v 0.416857 h 0.344509 v 0.225654 h -0.344509 v 1.176501 q 0,0.134359 0.04306,0.18948 0.04479,0.0534 0.153307,0.0534 0.06201,0 0.179145,-0.02412 z m 0.501262,-0.852662 q 0,0.320394 0.132636,0.494372 0.132636,0.173977 0.387574,0.173977 0.201538,0 0.322116,-0.08096 0.122301,-0.08096 0.165365,-0.204983 l 0.272163,0.07751 q -0.167087,0.440972 -0.759644,0.440972 -0.413412,0 -0.630453,-0.246324 -0.215319,-0.246325 -0.215319,-0.732084 0,-0.461643 0.215319,-0.707967 0.217041,-0.246325 0.618395,-0.246325 0.821656,0 0.821656,0.990466 v 0.04134 z m 1.009414,-0.237712 q -0.02584,-0.294555 -0.149862,-0.428914 -0.124024,-0.136082 -0.356568,-0.136082 -0.225654,0 -0.35829,0.151585 -0.130914,0.149861 -0.141249,0.413411 z"
       id="text3"
       style="font-size:3.52778px;font-family:'Liberation Sans';-inkscape-font-specification:'Liberation Sans, Normal';text-anchor:middle"
       inkscape:label="RATE_LABEL"
       aria-label="Rate" />
    <path
       d="m 9.4093757,120 v -1.6192 q 0,-0.26871 0.015503,-0.51676 -0.084405,0.30834 -0.1515843,0.48231 L 8.6462865,120 H 8.415465 l -0.6356205,-1.65365 -0.096463,-0.29283 -0.056844,-0.18948 0.00517,0.1912 0.00689,0.32556 V 120 H 7.3457622 v -2.42707 h 0.4323597 l 0.6459558,1.68293 q 0.034451,0.10163 0.065457,0.21876 0.032728,0.11541 0.043064,0.16709 0.01378,-0.0689 0.056844,-0.20843 0.044786,-0.14125 0.060289,-0.17742 l 0.633898,-1.68293 H 9.7056541 V 120 Z m 2.3995103,-0.93362 q 0,0.4892 -0.215318,0.72864 -0.215319,0.23943 -0.625286,0.23943 -0.408244,0 -0.616672,-0.24805 -0.208429,-0.24977 -0.208429,-0.72002 0,-0.96463 0.835437,-0.96463 0.427192,0 0.62873,0.23599 0.201538,0.23427 0.201538,0.72864 z m -0.325562,0 q 0,-0.38585 -0.11541,-0.55983 -0.113689,-0.1757 -0.384129,-0.1757 -0.272162,0 -0.394463,0.17915 -0.120579,0.17742 -0.120579,0.55638 0,0.36862 0.118856,0.55466 0.120578,0.18431 0.377238,0.18431 0.279053,0 0.397909,-0.17914 0.120578,-0.17915 0.120578,-0.55983 z m 1.887914,0.6339 q -0.08613,0.17914 -0.229099,0.25666 -0.141249,0.0775 -0.3514,0.0775 -0.353122,0 -0.52021,-0.23771 -0.165364,-0.23771 -0.165364,-0.72003 0,-0.97496 0.685574,-0.97496 0.211874,0 0.353123,0.0775 0.141249,0.0775 0.227376,0.24632 h 0.0034 l -0.0034,-0.20843 v -0.77342 h 0.310059 v 2.17213 q 0,0.29111 0.01033,0.38413 h -0.296278 q -0.0052,-0.0276 -0.01206,-0.12747 -0.0052,-0.0999 -0.0052,-0.17225 z m -0.940512,-0.6339 q 0,0.39102 0.103353,0.55983 0.103353,0.16881 0.335897,0.16881 0.26355,0 0.382406,-0.18259 0.118856,-0.18259 0.118856,-0.56672 0,-0.37035 -0.118856,-0.5426 -0.118856,-0.17226 -0.378961,-0.17226 -0.234266,0 -0.339342,0.17398 -0.103353,0.17225 -0.103353,0.56155 z m 2.029163,-0.93018 v 1.18167 q 0,0.18431 0.03617,0.28594 0.03617,0.10163 0.115411,0.14642 0.07924,0.0448 0.232544,0.0448 0.223932,0 0.353123,-0.15331 0.129191,-0.15331 0.129191,-0.42547 v -1.08004 h 0.310059 v 1.46589 q 0,0.32556 0.01033,0.39791 h -0.292833 q -0.0017,-0.009 -0.0034,-0.0465 -0.0017,-0.0379 -0.0052,-0.0861 -0.0017,-0.05 -0.0052,-0.18603 h -0.0052 q -0.106798,0.19292 -0.248047,0.27388 -0.139527,0.0792 -0.347955,0.0792 -0.306614,0 -0.449585,-0.15158 -0.141249,-0.15331 -0.141249,-0.50471 V 118.1362 Z M 16.118703,120 v -2.55626 h 0.310059 V 120 Z m 1.259184,0.0345 q -0.280776,0 -0.422025,-0.14814 -0.141249,-0.14814 -0.141249,-0.40652 0,-0.28939 0.189481,-0.44442 0.191202,-0.15503 0.614949,-0.16536 l 0.41858,-0.007 v -0.10163 q 0,-0.22738 -0.09646,-0.32556 -0.09646,-0.0982 -0.303168,-0.0982 -0.208429,0 -0.303169,0.0706 -0.09474,0.0706 -0.113688,0.22566 l -0.323839,-0.0293 q 0.07924,-0.50299 0.747586,-0.50299 0.3514,0 0.528822,0.16192 0.177423,0.1602 0.177423,0.46509 v 0.80271 q 0,0.1378 0.03617,0.20843 0.03617,0.0689 0.137804,0.0689 0.04479,0 0.101631,-0.0121 v 0.19292 q -0.117134,0.0276 -0.239435,0.0276 -0.172255,0 -0.251492,-0.0896 -0.07752,-0.0913 -0.08785,-0.28422 h -0.01034 q -0.118856,0.2136 -0.277331,0.30317 -0.156751,0.0879 -0.382405,0.0879 z m 0.07062,-0.23254 q 0.170532,0 0.303169,-0.0775 0.132636,-0.0775 0.208428,-0.21187 0.07751,-0.13608 0.07751,-0.27905 v -0.15331 l -0.339342,0.007 q -0.218764,0.003 -0.332452,0.0448 -0.111966,0.0413 -0.172255,0.12746 -0.06029,0.0861 -0.06029,0.22566 0,0.15158 0.08096,0.23426 0.08268,0.0827 0.234267,0.0827 z m 2.132516,0.18431 q -0.153307,0.0413 -0.313504,0.0413 -0.37207,0 -0.37207,-0.42202 v -1.24368 h -0.215319 v -0.22566 h 0.227377 l 0.09129,-0.41685 h 0.206706 v 0.41685 h 0.344509 v 0.22566 h -0.344509 v 1.1765 q 0,0.13436 0.04306,0.18948 0.04479,0.0534 0.153307,0.0534 0.06201,0 0.179145,-0.0241 z m 1.839682,-0.91984 q 0,0.4892 -0.215318,0.72864 -0.215319,0.23943 -0.625286,0.23943 -0.408244,0 -0.616672,-0.24805 -0.208429,-0.24977 -0.208429,-0.72002 0,-0.96463 0.835437,-0.96463 0.427192,0 0.62873,0.23599 0.201538,0.23427 0.201538,0.72864 z m -0.325562,0 q 0,-0.38585 -0.11541,-0.55983 -0.113689,-0.1757 -0.384129,-0.1757 -0.272162,0 -0.394463,0.17915 -0.120579,0.17742 -0.120579,0.55638 0,0.36862 0.118856,0.55466 0.120579,0.18431 0.377238,0.18431 0.279053,0 0.397909,-0.17914 0.120578,-0.17915 0.120578,-0.55983 z M 21.81345,120 v -1.42972 q 0,-0.19637 -0.01034,-0.43408 h 0.292833 q 0.01378,0.31695 0.01378,0.38069 h 0.0069 q 0.07407,-0.23944 0.170532,-0.32729 0.09646,-0.0879 0.272163,-0.0879 0.06201,0 0.125746,0.0172 v 0.28422 q -0.06201,-0.0172 -0.165365,-0.0172 -0.192925,0 -0.294556,0.16709 -0.10163,0.16536 -0.10163,0.47542 V 120 Z m 4.101389,-0.67007 q 0,0.3359 -0.26355,0.52021 -0.261827,0.18431 -0.738973,0.18431 -0.887113,0 -1.028362,-0.61667 l 0.318672,-0.0637 q 0.05512,0.21877 0.234266,0.32212 0.179145,0.10163 0.487482,0.10163 0.318671,0 0.490926,-0.10852 0.173978,-0.11024 0.173978,-0.32212 0,-0.11885 -0.05512,-0.19292 -0.0534,-0.0741 -0.151584,-0.1223 -0.09819,-0.0482 -0.234267,-0.081 -0.136081,-0.0327 -0.301446,-0.0706 -0.287666,-0.0637 -0.437527,-0.12747 -0.14814,-0.0637 -0.234267,-0.14124 -0.08613,-0.0792 -0.132636,-0.18432 -0.04479,-0.10507 -0.04479,-0.24115 0,-0.31179 0.237712,-0.4806 0.239434,-0.1688 0.683852,-0.1688 0.413412,0 0.632175,0.12746 0.218764,0.12575 0.306614,0.43064 l -0.323839,0.0568 q -0.0534,-0.19293 -0.203261,-0.27906 -0.149862,-0.0878 -0.415134,-0.0878 -0.291111,0 -0.444418,0.0965 -0.153307,0.0965 -0.153307,0.28767 0,0.11197 0.05857,0.18604 0.06029,0.0723 0.172255,0.12402 0.111966,0.05 0.44614,0.12402 0.111966,0.0258 0.222209,0.0534 0.111966,0.0258 0.213596,0.0637 0.10163,0.0362 0.18948,0.0861 0.08957,0.05 0.15503,0.1223 0.06546,0.0724 0.10163,0.17054 0.0379,0.0982 0.0379,0.23082 z m 0.39791,-1.58991 v -0.29628 h 0.310059 v 0.29628 z m 0,2.25998 v -1.8638 h 0.310059 V 120 Z m 1.491726,0.73208 q -0.304892,0 -0.485759,-0.12058 -0.180868,-0.11885 -0.232544,-0.33934 l 0.311781,-0.0448 q 0.03101,0.12919 0.136081,0.19809 0.106798,0.0706 0.279053,0.0706 0.463366,0 0.463366,-0.5426 v -0.29972 h -0.0034 q -0.08785,0.17914 -0.241157,0.27044 -0.153307,0.0896 -0.35829,0.0896 -0.342787,0 -0.504707,-0.22738 -0.160197,-0.22737 -0.160197,-0.71485 0,-0.49438 0.172255,-0.72864 0.173977,-0.23599 0.5271,-0.23599 0.198093,0 0.342787,0.0913 0.146417,0.0896 0.225654,0.25666 h 0.0034 q 0,-0.0517 0.0069,-0.17914 0.0069,-0.12747 0.01378,-0.13953 h 0.294556 q -0.01034,0.093 -0.01034,0.38585 v 1.42455 q 0,0.78548 -0.780314,0.78548 z m 0.471978,-1.66398 q 0,-0.22738 -0.06201,-0.39102 -0.06201,-0.16536 -0.1757,-0.25149 -0.111965,-0.0879 -0.254937,-0.0879 -0.237712,0 -0.346232,0.17226 -0.108521,0.17225 -0.108521,0.5581 0,0.38241 0.101631,0.54949 0.10163,0.16709 0.347954,0.16709 0.146417,0 0.260105,-0.0861 0.113688,-0.0861 0.1757,-0.24632 0.06201,-0.16192 0.06201,-0.38413 z M 30.243605,120 v -1.18167 q 0,-0.18431 -0.03617,-0.28594 -0.03617,-0.10163 -0.115411,-0.14642 -0.07924,-0.0448 -0.232544,-0.0448 -0.223931,0 -0.353123,0.1533 -0.129191,0.15331 -0.129191,0.42547 V 120 h -0.310059 v -1.46589 q 0,-0.32556 -0.01034,-0.39791 h 0.292833 q 0.0017,0.009 0.0034,0.0465 0.0017,0.0379 0.0034,0.0879 0.0034,0.0482 0.0069,0.18431 h 0.0052 q 0.106799,-0.19292 0.246325,-0.27216 0.141249,-0.081 0.349677,-0.081 0.306614,0 0.447863,0.15331 0.142972,0.15158 0.142972,0.50298 V 120 Z m 1.254015,0.0345 q -0.280775,0 -0.422024,-0.14814 -0.141249,-0.14814 -0.141249,-0.40652 0,-0.28939 0.18948,-0.44442 0.191203,-0.15503 0.61495,-0.16536 l 0.41858,-0.007 v -0.10163 q 0,-0.22738 -0.09646,-0.32556 -0.09646,-0.0982 -0.303169,-0.0982 -0.208428,0 -0.303168,0.0706 -0.09474,0.0706 -0.113689,0.22566 l -0.323839,-0.0293 q 0.07924,-0.50299 0.747587,-0.50299 0.351399,0 0.528822,0.16192 0.177423,0.1602 0.177423,0.46509 v 0.80271 q 0,0.1378 0.03617,0.20843 0.03617,0.0689 0.137804,0.0689 0.04479,0 0.10163,-0.0121 v 0.19292 q -0.117133,0.0276 -0.239434,0.0276 -0.172255,0 -0.251492,-0.0896 -0.07751,-0.0913 -0.08785,-0.28422 h -0.01034 q -0.118856,0.2136 -0.277331,0.30317 -0.156752,0.0879 -0.382406,0.0879 z m 0.07062,-0.23254 q 0.170532,0 0.303169,-0.0775 0.132636,-0.0775 0.208428,-0.21187 0.07751,-0.13608 0.07751,-0.27905 v -0.15331 l -0.339342,0.007 q -0.218764,0.003 -0.332452,0.0448 -0.111966,0.0413 -0.172255,0.12746 -0.06029,0.0861 -0.06029,0.22566 0,0.15158 0.08096,0.23426 0.08268,0.0827 0.234267,0.0827 z M 32.98418,120 v -2.55626 h 0.310058 V 120 Z"
       id="text5"
       style="font-size:3.52778px;font-family:'Liberation Sans';-inkscape-font-specification:'Liberation Sans, Normal';text-anchor:middle"
       inkscape:label="MODULATORSIGNAL_LABEL"
       aria-label="Modulator Signal" />
    <path
       d="m 8.9455004,7.1373968 q -0.2418459,0 -0.3762045,0.156063 -0.1343588,0.1550287 -0.1343588,0.4258137 0,0.2676837 0.1395264,0.4309807 0.1405599,0.162264 0.3793051,0.162264 0.3059245,0 0.4599202,-0.302823 l 0.1612304,0.08061 q -0.089917,0.188102 -0.2532144,0.286287 -0.1622639,0.09819 -0.3772379,0.09819 -0.2201418,0 -0.3813723,-0.09095 -0.1601967,-0.09198 -0.2449462,-0.261483 -0.083716,-0.170532 -0.083716,-0.4030757 0,-0.348299 0.188102,-0.5457037 0.1881024,-0.197404 0.5208985,-0.197404 0.2325441,0 0.3886067,0.09095 0.1560629,0.09095 0.2294435,0.269751 l -0.1870683,0.06201 Q 9.3237717,7.2717558 9.2111172,7.2045758 9.0994961,7.1373968 8.9455004,7.1373968 Z M 9.8022955,8.4541119 V 7.5962835 q 0,-0.117822 -0.0062,-0.2604497 h 0.1756997 q 0.00827,0.1901697 0.00827,0.2284097 h 0.00414 q 0.044434,-0.14366 0.1023118,-0.19637 0.05788,-0.05271 0.163297,-0.05271 0.03721,0 0.07545,0.01033 v 0.1705317 q -0.03721,-0.01033 -0.09922,-0.01033 -0.115755,0 -0.176734,0.100253 -0.060978,0.09922 -0.060978,0.285254 V 8.4541119 Z M 10.645655,7.9342472 q 0,0.192236 0.07958,0.296623 0.07958,0.104386 0.232544,0.104386 0.120922,0 0.193269,-0.04858 0.07338,-0.04858 0.09922,-0.12299 l 0.163298,0.04651 q -0.100252,0.2645837 -0.455786,0.2645837 -0.248047,0 -0.378272,-0.1477947 -0.129191,-0.147795 -0.129191,-0.43925 0,-0.2769857 0.129191,-0.4247797 0.130225,-0.1477947 0.371037,-0.1477947 0.492993,0 0.492993,0.5942784 v 0.02481 z m 0.605648,-0.1426267 q -0.0155,-0.176734 -0.08992,-0.257349 -0.07441,-0.08165 -0.213941,-0.08165 -0.135392,0 -0.214974,0.09095 -0.07855,0.08992 -0.08475,0.248047 z m 0.714168,0.6831624 q -0.168465,0 -0.253215,-0.08888 -0.08475,-0.08888 -0.08475,-0.243913 0,-0.173633 0.113688,-0.2666507 0.114722,-0.09302 0.36897,-0.09922 l 0.251147,-0.0041 v -0.06098 q 0,-0.136425 -0.05788,-0.195337 -0.05788,-0.05891 -0.181901,-0.05891 -0.125057,0 -0.181901,0.04237 -0.05684,0.04237 -0.06821,0.135392 l -0.194303,-0.01757 q 0.04754,-0.3017897 0.448551,-0.3017897 0.21084,0 0.317293,0.09715 0.106454,0.09612 0.106454,0.279053 v 0.4816244 q 0,0.08268 0.0217,0.125057 0.0217,0.04134 0.08268,0.04134 0.02687,0 0.06098,-0.0072 v 0.1157567 q -0.07028,0.01654 -0.14366,0.01654 -0.103353,0 -0.150896,-0.05374 -0.04651,-0.05478 -0.05271,-0.170533 h -0.0062 q -0.07131,0.128158 -0.166398,0.1819017 -0.09405,0.05271 -0.229444,0.05271 z m 0.04237,-0.1395267 q 0.102319,0 0.181901,-0.04651 0.07958,-0.04651 0.125057,-0.127124 0.04651,-0.08165 0.04651,-0.167432 v -0.09198 l -0.203605,0.0041 q -0.131258,0.0021 -0.199471,0.02687 -0.06718,0.0248 -0.103352,0.07648 -0.03617,0.05168 -0.03617,0.135393 0,0.09095 0.04858,0.140559 0.04961,0.04961 0.14056,0.04961 z m 1.279508,0.1105877 q -0.09198,0.02481 -0.188102,0.02481 -0.223242,0 -0.223242,-0.2532147 V 7.4712265 H 12.746819 V 7.3358338 h 0.136425 l 0.05478,-0.250114 h 0.124023 v 0.250114 h 0.206706 v 0.1353927 h -0.206708 v 0.7058997 q 0,0.08061 0.02584,0.113688 0.02687,0.03204 0.09198,0.03204 0.03721,0 0.107487,-0.01447 z m 0.300757,-0.5115967 q 0,0.192236 0.07958,0.296623 0.07958,0.104386 0.232543,0.104386 0.120924,0 0.19327,-0.04858 0.07338,-0.04858 0.09922,-0.12299 l 0.163298,0.04651 q -0.100253,0.2645837 -0.455787,0.2645837 -0.248046,0 -0.378271,-0.1477947 -0.129191,-0.147795 -0.129191,-0.43925 0,-0.2769857 0.129191,-0.4247797 0.130231,-0.1477947 0.371043,-0.1477947 0.492993,0 0.492993,0.5942784 v 0.02481 z m 0.605648,-0.1426267 q -0.0155,-0.176734 -0.08992,-0.257349 -0.07441,-0.08165 -0.213941,-0.08165 -0.135392,0 -0.214974,0.09095 -0.07855,0.08992 -0.08475,0.248047 z m 0.45992,0.6624914 V 6.9978698 h 0.197404 v 1.2950124 h 0.735872 v 0.1612297 z m 1.14515,-1.3559891 v -0.177767 h 0.186035 v 0.177767 z m 0,1.3559891 V 7.3358338 h 0.186035 v 1.1182781 z m 1.310514,-0.3090247 q 0,0.15813 -0.119889,0.243913 -0.118856,0.08578 -0.33383,0.08578 -0.208773,0 -0.322461,-0.06821 -0.112655,-0.06925 -0.146761,-0.214974 l 0.164331,-0.03204 q 0.02377,0.08992 0.09818,0.132291 0.07441,0.04134 0.206706,0.04134 0.141593,0 0.206706,-0.04341 0.06615,-0.04341 0.06615,-0.130224 0,-0.06615 -0.04548,-0.107487 -0.04547,-0.04134 -0.146761,-0.06821 l -0.133325,-0.03514 q -0.160197,-0.04134 -0.22841,-0.08061 -0.06718,-0.04031 -0.10542,-0.09715 -0.03824,-0.05684 -0.03824,-0.139526 0,-0.152963 0.10852,-0.232545 0.109554,-0.08061 0.318327,-0.08061 0.185002,0 0.293522,0.06511 0.109554,0.06511 0.138493,0.208773 l -0.167432,0.02067 q -0.0155,-0.07441 -0.08372,-0.113688 -0.06718,-0.04031 -0.180867,-0.04031 -0.12609,0 -0.186035,0.03824 -0.05994,0.03824 -0.05994,0.115755 0,0.04754 0.02481,0.07855 0.02481,0.03101 0.07338,0.05271 0.04858,0.0217 0.204639,0.05994 0.147795,0.03721 0.212907,0.06925 0.06511,0.03101 0.102319,0.06925 0.03824,0.03824 0.05891,0.08888 0.02067,0.04961 0.02067,0.113688 z m 0.649056,0.3007567 q -0.09198,0.02481 -0.188102,0.02481 -0.223242,0 -0.223242,-0.2532147 V 7.4712265 H 17.217864 V 7.3358338 h 0.136425 l 0.05478,-0.250114 h 0.124024 v 0.250114 h 0.206705 V 7.4712265 H 17.53309 v 0.7058997 q 0,0.08061 0.02584,0.113688 0.02687,0.03204 0.09198,0.03204 0.03721,0 0.107487,-0.01447 z m 0.300757,-0.5115967 q 0,0.192236 0.07958,0.296623 0.07958,0.104386 0.232543,0.104386 0.120923,0 0.19327,-0.04858 0.07338,-0.04858 0.09922,-0.12299 l 0.163298,0.04651 q -0.100253,0.2645837 -0.455787,0.2645837 -0.248046,0 -0.378271,-0.1477947 -0.129191,-0.147795 -0.129191,-0.43925 0,-0.2769857 0.129191,-0.4247797 0.130225,-0.1477947 0.371037,-0.1477947 0.492993,0 0.492993,0.5942784 v 0.02481 z m 0.605648,-0.1426267 q -0.0155,-0.176734 -0.08992,-0.257349 -0.07441,-0.08165 -0.213941,-0.08165 -0.135392,0 -0.214974,0.09095 -0.07855,0.08992 -0.08475,0.248047 z m 1.138948,0.6624914 V 7.7451115 q 0,-0.110588 -0.0217,-0.171566 -0.0217,-0.06098 -0.06925,-0.08785 -0.04754,-0.02687 -0.139526,-0.02687 -0.134359,0 -0.211874,0.09198 -0.07751,0.09198 -0.07751,0.255282 V 8.4541099 H 19.097852 V 7.5745775 q 0,-0.195337 -0.0062,-0.2387457 h 0.1757 q 0.001,0.0052 0.0021,0.0279 10e-4,0.02274 0.0021,0.05271 0.0021,0.02894 0.0041,0.110587 h 0.0031 q 0.06408,-0.115755 0.147795,-0.163297 0.08475,-0.04858 0.209806,-0.04858 0.183968,0 0.268718,0.09198 0.08578,0.09095 0.08578,0.30179 v 0.7451751 z m 1.143088,-1.3167151 q -0.241846,0 -0.376205,0.156063 -0.134358,0.1550287 -0.134358,0.4258137 0,0.2676837 0.139526,0.4309807 0.14056,0.162264 0.379305,0.162264 0.305925,0 0.45992,-0.302823 l 0.161231,0.08061 q -0.08992,0.188102 -0.253215,0.286287 -0.162264,0.09819 -0.377238,0.09819 -0.220141,0 -0.381372,-0.09095 -0.160197,-0.09198 -0.244946,-0.261483 -0.08372,-0.170532 -0.08372,-0.4030757 0,-0.3483 0.188102,-0.5457037 0.188103,-0.197404 0.520899,-0.197404 0.232544,0 0.388606,0.09095 0.156063,0.09095 0.229444,0.269751 l -0.187069,0.06201 q -0.05064,-0.1271237 -0.163293,-0.1943037 -0.111621,-0.06718 -0.265617,-0.06718 z M 21.80363,8.4541119 V 7.5962835 q 0,-0.117822 -0.0062,-0.2604497 h 0.1757 q 0.0083,0.1901697 0.0083,0.2284097 h 0.0041 q 0.04444,-0.14366 0.102321,-0.19637 0.05788,-0.05271 0.163297,-0.05271 0.03721,0 0.07545,0.01033 v 0.1705317 q -0.03721,-0.01033 -0.09922,-0.01033 -0.115755,0 -0.176733,0.100253 -0.06098,0.09922 -0.06098,0.285254 v 0.5829097 z m 0.843359,-0.5198647 q 0,0.192236 0.07958,0.296623 0.07958,0.104386 0.232544,0.104386 0.120923,0 0.19327,-0.04858 0.07338,-0.04858 0.09922,-0.12299 l 0.163297,0.04651 q -0.100252,0.2645837 -0.455786,0.2645837 -0.248047,0 -0.378271,-0.1477947 -0.129191,-0.147795 -0.129191,-0.43925 0,-0.2769857 0.129191,-0.4247797 0.130225,-0.1477947 0.371037,-0.1477947 0.492993,0 0.492993,0.5942784 v 0.02481 z m 0.605648,-0.1426267 q -0.0155,-0.176734 -0.08992,-0.257349 -0.07441,-0.08165 -0.21394,-0.08165 -0.135393,0 -0.214974,0.09095 -0.07855,0.08992 -0.08475,0.248047 z m 0.714168,0.6831624 q -0.168465,0 -0.253214,-0.08888 -0.08475,-0.08888 -0.08475,-0.243913 0,-0.173633 0.113688,-0.2666507 0.114721,-0.09302 0.368969,-0.09922 l 0.251148,-0.0041 v -0.06098 q 0,-0.136425 -0.05788,-0.195337 -0.05788,-0.05891 -0.181901,-0.05891 -0.125057,0 -0.181901,0.04237 -0.05684,0.04237 -0.06821,0.135392 l -0.194303,-0.01757 q 0.04754,-0.3017897 0.448551,-0.3017897 0.21084,0 0.317294,0.09715 0.106453,0.09612 0.106453,0.279053 v 0.4816244 q 0,0.08268 0.0217,0.125057 0.0217,0.04134 0.08268,0.04134 0.02687,0 0.06098,-0.0072 v 0.1157567 q -0.07028,0.01654 -0.143661,0.01654 -0.103353,0 -0.150895,-0.05374 -0.04651,-0.05478 -0.05271,-0.170533 h -0.0062 q -0.07131,0.128158 -0.166398,0.1819017 -0.09405,0.05271 -0.229443,0.05271 z m 0.04237,-0.1395267 q 0.102319,0 0.181901,-0.04651 0.07958,-0.04651 0.125057,-0.127124 0.04651,-0.08165 0.04651,-0.167432 v -0.09198 l -0.203605,0.0041 q -0.131258,0.0021 -0.199471,0.02687 -0.06718,0.0248 -0.103353,0.07648 -0.03617,0.05168 -0.03617,0.135393 0,0.09095 0.04858,0.140559 0.04961,0.04961 0.14056,0.04961 z m 1.279509,0.1105877 q -0.09198,0.02481 -0.188103,0.02481 -0.223242,0 -0.223242,-0.2532147 V 7.4712265 H 24.748153 V 7.3358338 h 0.136426 l 0.05478,-0.250114 h 0.124023 v 0.250114 h 0.206706 v 0.1353927 h -0.206709 v 0.7058997 q 0,0.08061 0.02584,0.113688 0.02687,0.03204 0.09198,0.03204 0.03721,0 0.107487,-0.01447 z M 25.58944,7.9342472 q 0,0.192236 0.07958,0.296623 0.07958,0.104386 0.232544,0.104386 0.120923,0 0.19327,-0.04858 0.07338,-0.04858 0.09922,-0.12299 l 0.163297,0.04651 q -0.100252,0.2645837 -0.455786,0.2645837 -0.248047,0 -0.378271,-0.1477947 -0.129191,-0.147795 -0.129191,-0.43925 0,-0.2769857 0.129191,-0.4247797 0.130224,-0.1477947 0.371036,-0.1477947 0.492994,0 0.492994,0.5942784 v 0.02481 z m 0.605648,-0.1426267 q -0.0155,-0.176734 -0.08992,-0.257349 -0.07441,-0.08165 -0.21394,-0.08165 -0.135392,0 -0.214974,0.09095 -0.07855,0.08992 -0.08475,0.248047 z m 2.189015,0.2604487 q 0,0.201538 -0.158131,0.312126 -0.157097,0.1105877 -0.443384,0.1105877 -0.532267,0 -0.617016,-0.3700037 l 0.191201,-0.03824 q 0.03307,0.131258 0.14056,0.19327 0.107487,0.06098 0.292489,0.06098 0.191204,0 0.294555,-0.06511 0.104389,-0.06615 0.104389,-0.19327 0,-0.07131 -0.03307,-0.115755 -0.03204,-0.04444 -0.09095,-0.07338 -0.05891,-0.02894 -0.14056,-0.04858 -0.08165,-0.01964 -0.180869,-0.04237 -0.172599,-0.03824 -0.262517,-0.07648 -0.08888,-0.03824 -0.14056,-0.08475 -0.05168,-0.04754 -0.07958,-0.110588 -0.02687,-0.06305 -0.02687,-0.144694 0,-0.1870687 0.142627,-0.2883547 0.14366,-0.101285 0.41031,-0.101285 0.248047,0 0.379307,0.07648 0.131257,0.07545 0.183967,0.258382 l -0.194302,0.03411 q -0.03204,-0.115759 -0.121957,-0.167435 -0.08992,-0.05271 -0.249081,-0.05271 -0.174665,0 -0.26665,0.05788 -0.09199,0.05788 -0.09199,0.1725997 0,0.06718 0.03514,0.111621 0.03617,0.04341 0.103351,0.07441 0.06718,0.02997 0.267685,0.07441 0.06718,0.0155 0.133326,0.03204 0.06718,0.0155 0.128156,0.03824 0.06098,0.0217 0.113689,0.05168 0.05374,0.02997 0.09302,0.07338 0.03927,0.04341 0.06098,0.1023187 0.02273,0.05891 0.02273,0.138493 z m 0.294555,0.8412927 q -0.07648,0 -0.128159,-0.01137 v -0.139527 q 0.03927,0.0062 0.08682,0.0062 0.173633,0 0.274918,-0.255281 l 0.01757,-0.04444 -0.443383,-1.1131101 h 0.198437 l 0.235643,0.6180494 q 0.0052,0.01447 0.01241,0.03514 0.0072,0.01964 0.04651,0.134359 0.03927,0.114722 0.04237,0.128158 l 0.07235,-0.203605 0.244945,-0.7121014 h 0.196372 l -0.429948,1.1182781 q -0.06925,0.1788 -0.129191,0.265617 -0.05994,0.08785 -0.133326,0.130224 -0.07235,0.04341 -0.16433,0.04341 z m 1.71359,-0.43925 V 7.7451115 q 0,-0.110588 -0.0217,-0.171566 -0.0217,-0.06098 -0.06925,-0.08785 -0.04754,-0.02687 -0.139525,-0.02687 -0.134361,0 -0.211873,0.09198 -0.07752,0.09198 -0.07752,0.255282 V 8.4541099 H 29.68636 V 7.5745775 q 0,-0.195337 -0.0062,-0.2387457 h 0.175702 q 0.0011,0.0052 0.0021,0.0279 0.0011,0.02274 0.0021,0.05271 0.0021,0.02894 0.0041,0.110587 h 0.0031 q 0.06408,-0.115755 0.147794,-0.163297 0.08475,-0.04858 0.209807,-0.04858 0.183967,0 0.268716,0.09198 0.08578,0.09095 0.08578,0.30179 v 0.7451751 z m 0.897104,-0.0083 q -0.09198,0.02481 -0.188103,0.02481 -0.223242,0 -0.223242,-0.2532147 V 7.4712265 H 30.748821 V 7.3358338 h 0.136425 l 0.05478,-0.250114 h 0.124024 v 0.250114 h 0.206706 v 0.1353927 h -0.20671 v 0.7058997 q 0,0.08061 0.02585,0.113688 0.02687,0.03204 0.09199,0.03204 0.03721,0 0.107487,-0.01447 z m 0.34313,-0.9188064 q 0.05994,-0.109554 0.143661,-0.160197 0.08475,-0.05168 0.213939,-0.05168 0.181901,0 0.267685,0.09095 0.08682,0.08992 0.08682,0.302824 V 8.4541089 H 32.157521 V 7.7451085 q 0,-0.117822 -0.0217,-0.174666 -0.0217,-0.05788 -0.07131,-0.08475 -0.04961,-0.02687 -0.137459,-0.02687 -0.131257,0 -0.210838,0.09095 -0.07855,0.09095 -0.07855,0.244946 V 8.4541099 H 31.451631 V 6.9203528 h 0.186034 v 0.398942 q 0,0.06304 -0.0041,0.1302247 -0.0031,0.06718 -0.0041,0.07751 z m 1.831414,0.6180497 q 0,0.15813 -0.11989,0.243913 -0.118857,0.08578 -0.33383,0.08578 -0.208773,0 -0.322461,-0.06821 -0.112655,-0.06925 -0.146762,-0.214974 l 0.164333,-0.03204 q 0.02376,0.08992 0.09818,0.132292 0.07441,0.04134 0.206706,0.04134 0.141594,0 0.206705,-0.04341 0.06615,-0.04341 0.06615,-0.130225 0,-0.06615 -0.04547,-0.107487 -0.04548,-0.04134 -0.146762,-0.06821 l -0.133325,-0.03511 q -0.160197,-0.04134 -0.228409,-0.08061 -0.06718,-0.04031 -0.105421,-0.09715 -0.03824,-0.05684 -0.03824,-0.139526 0,-0.152963 0.108521,-0.232545 0.109554,-0.08061 0.318326,-0.08061 0.185002,0 0.293523,0.06511 0.109554,0.06511 0.138494,0.208773 l -0.167434,0.02067 q -0.0155,-0.07441 -0.08371,-0.113688 -0.06718,-0.04031 -0.180869,-0.04031 -0.12609,0 -0.186034,0.03824 -0.05994,0.03824 -0.05994,0.115755 0,0.04754 0.02479,0.07855 0.02479,0.03101 0.07338,0.05271 0.04857,0.0217 0.204639,0.05994 0.147794,0.03721 0.212908,0.06925 0.06511,0.03101 0.102317,0.06925 0.03824,0.03824 0.05891,0.08888 0.02066,0.04961 0.02066,0.113688 z"
       id="text7"
       style="font-size:8px;font-family:'Liberation Sans';-inkscape-font-specification:'Liberation Sans, Normal';text-align:center;white-space:pre;stroke-width:0.247;stroke-linecap:round;stroke-linejoin:round"
       inkscape:label="CREATELISTENCREATE_LABEL"
       aria-label="CreateListenCreate Synths" />
    <path
       d="m 10.163071,14.462911 v -1.943035 q 0,-0.322461 0.0186,-0.620118 -0.101286,0.370004 -0.1819007,0.578776 L 9.2473644,14.462911 H 8.9703787 l -0.7627442,-1.984377 -0.1157552,-0.351398 -0.068213,-0.227378 0.0062,0.229444 0.00827,0.390674 v 1.943035 H 7.6867368 v -2.912485 h 0.5188315 l 0.7751464,2.019515 q 0.041341,0.121957 0.078548,0.262517 0.039274,0.138494 0.051676,0.200504 0.016537,-0.08268 0.068213,-0.250113 0.053743,-0.169498 0.072347,-0.212908 l 0.7606773,-2.019515 h 0.506429 v 2.912485 z m 2.879411,-1.120345 q 0,0.587045 -0.258382,0.874366 -0.258382,0.28732 -0.750342,0.28732 -0.489892,0 -0.740006,-0.297657 -0.250114,-0.299722 -0.250114,-0.864029 0,-1.157552 1.002523,-1.157552 0.51263,0 0.754476,0.283186 0.241845,0.28112 0.241845,0.874366 z m -0.390674,0 q 0,-0.463021 -0.138492,-0.671793 -0.136426,-0.210841 -0.460954,-0.210841 -0.326595,0 -0.473356,0.214974 -0.144694,0.212907 -0.144694,0.66766 0,0.442349 0.142627,0.665592 0.144694,0.221175 0.452685,0.221175 0.334864,0 0.47749,-0.214973 0.144694,-0.214974 0.144694,-0.671794 z m 2.265495,0.760678 q -0.103353,0.214974 -0.274918,0.307991 -0.169499,0.09302 -0.42168,0.09302 -0.423747,0 -0.624251,-0.285253 -0.198438,-0.285255 -0.198438,-0.864032 0,-1.169953 0.822689,-1.169953 0.254248,0 0.423747,0.09302 0.169498,0.09302 0.272851,0.295589 h 0.0041 l -0.0041,-0.250113 v -0.928117 h 0.37207 v 2.606562 q 0,0.349333 0.0124,0.460953 H 14.94624 q -0.0062,-0.03307 -0.01447,-0.152961 -0.0062,-0.119891 -0.0062,-0.206706 z M 13.78869,13.342566 q 0,0.469223 0.124023,0.671794 0.124024,0.202572 0.403077,0.202572 0.316259,0 0.458886,-0.219109 0.142627,-0.219107 0.142627,-0.680061 0,-0.444419 -0.142627,-0.651124 -0.142627,-0.206706 -0.454752,-0.206706 -0.28112,0 -0.407211,0.208772 -0.124023,0.206706 -0.124023,0.673862 z m 2.434993,-1.116211 v 1.418 q 0,0.221176 0.04341,0.343133 0.04341,0.121957 0.138492,0.1757 0.09508,0.05375 0.279053,0.05375 0.268718,0 0.423747,-0.18397 0.155029,-0.183968 0.155029,-0.510562 v -1.296051 h 0.372071 v 1.759067 q 0,0.390674 0.0124,0.477489 h -0.3514 q -0.0021,-0.01035 -0.0041,-0.05581 -0.0021,-0.04548 -0.0062,-0.103354 -0.0021,-0.05994 -0.0062,-0.223243 h -0.0062 q -0.128158,0.231511 -0.297656,0.328663 -0.167432,0.09508 -0.417546,0.09508 -0.367936,0 -0.539502,-0.181901 -0.169539,-0.183963 -0.169539,-0.605643 v -1.490348 z m 1.990577,2.236556 v -3.067515 h 0.37207 v 3.067515 z m 1.511018,0.04134 q -0.33693,0 -0.506429,-0.177766 -0.169498,-0.177768 -0.169498,-0.487826 0,-0.347266 0.227376,-0.533302 0.229443,-0.186034 0.737939,-0.198438 l 0.502295,-0.0083 v -0.121948 q 0,-0.272852 -0.115755,-0.390676 -0.115755,-0.117822 -0.363802,-0.117822 -0.250114,0 -0.363802,0.08475 -0.113688,0.08475 -0.136426,0.270785 l -0.388606,-0.03514 q 0.09508,-0.603581 0.897102,-0.603581 0.42168,0 0.634587,0.194302 0.212907,0.192239 0.212907,0.558108 v 0.963248 q 0,0.165364 0.04341,0.250115 0.04341,0.08268 0.165364,0.08268 0.05374,0 0.121957,-0.01447 v 0.23151 q -0.14056,0.03307 -0.287321,0.03307 -0.206706,0 -0.30179,-0.107487 -0.09302,-0.109553 -0.10542,-0.341063 h -0.0124 q -0.142627,0.256314 -0.332797,0.363801 -0.188102,0.105418 -0.458886,0.105418 z m 0.08475,-0.279051 q 0.204638,0 0.363802,-0.09302 0.159163,-0.09302 0.250114,-0.254246 0.09302,-0.163299 0.09302,-0.334865 v -0.183966 l -0.40721,0.0083 q -0.262516,0.0041 -0.398942,0.05374 -0.134359,0.04961 -0.206706,0.152963 -0.07235,0.103352 -0.07235,0.270786 0,0.181901 0.09715,0.28112 0.09922,0.09922 0.28112,0.09922 z m 2.559017,0.221173 q -0.183969,0.04961 -0.376205,0.04961 -0.446484,0 -0.446484,-0.506429 V 12.49714 h -0.258382 v -0.270785 h 0.272851 l 0.109554,-0.50023 h 0.248047 v 0.50023 h 0.413412 v 0.270785 h -0.413412 v 1.411799 q 0,0.161232 0.05168,0.227378 0.05374,0.06408 0.183968,0.06408 0.07441,0 0.214974,-0.02894 z m 2.207618,-1.103808 q 0,0.587045 -0.258383,0.874366 -0.258382,0.28732 -0.750342,0.28732 -0.489893,0 -0.740007,-0.297657 -0.250114,-0.299722 -0.250114,-0.864029 0,-1.157552 1.002523,-1.157552 0.51263,0 0.754476,0.283186 0.241847,0.28112 0.241847,0.874366 z m -0.390675,0 q 0,-0.463021 -0.138493,-0.671793 -0.136426,-0.210841 -0.460954,-0.210841 -0.326595,0 -0.473356,0.214974 -0.144694,0.212907 -0.144694,0.66766 0,0.442349 0.142627,0.665592 0.144694,0.221175 0.452686,0.221175 0.334863,0 0.47749,-0.214973 0.144694,-0.214974 0.144694,-0.671794 z m 0.861964,1.120345 v -1.715657 q 0,-0.235646 -0.01241,-0.520898 h 0.351401 q 0.01654,0.380338 0.01654,0.456819 h 0.0083 q 0.08888,-0.287322 0.204637,-0.39274 0.115755,-0.10542 0.326596,-0.10542 0.07441,0 0.150895,0.02066 v 0.341066 q -0.07441,-0.02066 -0.198438,-0.02066 -0.23151,0 -0.353467,0.200504 -0.121954,0.198438 -0.121954,0.570508 v 1.165821 z m 5.382617,-1.469677 q 0,0.456819 -0.175702,0.79995 -0.173633,0.343133 -0.500227,0.5271 -0.326596,0.183968 -0.771011,0.183968 -0.448554,0 -0.775147,-0.181901 -0.324528,-0.181902 -0.496094,-0.525032 -0.171567,-0.345199 -0.171567,-0.804085 0,-0.698667 0.382405,-1.091407 0.382408,-0.394809 1.064536,-0.394809 0.444418,0 0.771011,0.177766 0.326597,0.175702 0.498163,0.512631 0.173633,0.336931 0.173633,0.795819 z m -0.403077,0 q 0,-0.543637 -0.272852,-0.853697 -0.270785,-0.310058 -0.766878,-0.310058 -0.500227,0 -0.773079,0.305925 -0.272851,0.305925 -0.272851,0.85783 0,0.54777 0.274918,0.870231 0.276984,0.320395 0.766879,0.320395 0.504362,0 0.773078,-0.31006 0.270785,-0.312127 0.270785,-0.880566 z m 2.310969,1.469677 v -1.418 q 0,-0.221176 -0.04341,-0.343133 -0.04341,-0.121955 -0.138493,-0.1757 -0.09508,-0.05374 -0.279051,-0.05374 -0.268719,0 -0.423749,0.183968 -0.155027,0.183967 -0.155027,0.510564 v 1.296044 h -0.37207 v -1.759065 q 0,-0.390676 -0.01241,-0.477491 h 0.351401 q 0.0021,0.01035 0.0041,0.05581 0.0021,0.04547 0.0041,0.105418 0.0041,0.05788 0.0083,0.221175 h 0.0062 q 0.128159,-0.23151 0.29559,-0.326593 0.1695,-0.09715 0.419613,-0.09715 0.367935,0 0.537435,0.183967 0.171566,0.181901 0.171566,0.603581 v 1.490349 z m 1.219565,-1.039729 q 0,0.384472 0.159163,0.593244 0.159162,0.208775 0.465087,0.208775 0.241847,0 0.38654,-0.09715 0.146762,-0.09715 0.198438,-0.245981 l 0.326596,0.09302 q -0.200506,0.529167 -0.911574,0.529167 -0.496094,0 -0.756542,-0.295587 -0.258381,-0.29559 -0.258381,-0.878502 0,-0.553972 0.258381,-0.849559 0.260448,-0.29559 0.742074,-0.29559 0.985986,0 0.985986,1.188559 v 0.04961 z m 1.211294,-0.285254 q -0.031,-0.353468 -0.179832,-0.514697 -0.148828,-0.163298 -0.427881,-0.163298 -0.270786,0 -0.429948,0.181901 -0.157097,0.179835 -0.1695,0.496094 z"
       id="text9"
       style="font-size:16px;font-family:'Liberation Sans';-inkscape-font-specification:'Liberation Sans, Normal';text-align:center;white-space:pre;stroke-width:0.247;stroke-linecap:round;stroke-linejoin:round"
       inkscape:label="MODULATORONE_LABEL"
       aria-label="Modulator One" />
    <path
       d="m 26.068931,42.886778 q 0,0.380683 -0.146417,0.666626 -0.144694,0.285943 -0.416857,0.43925 -0.272163,0.153307 -0.642511,0.153307 -0.373793,0 -0.645955,-0.151584 -0.270441,-0.151584 -0.413412,-0.437528 -0.142972,-0.287665 -0.142972,-0.670071 0,-0.582222 0.318672,-0.909506 0.318671,-0.329007 0.887112,-0.329007 0.370348,0 0.642511,0.148139 0.272163,0.146417 0.415134,0.427193 0.144695,0.280775 0.144695,0.663181 z m -0.335897,0 q 0,-0.45303 -0.227377,-0.711413 -0.225654,-0.258382 -0.639066,-0.258382 -0.416856,0 -0.644233,0.254937 -0.227376,0.254937 -0.227376,0.714858 0,0.456475 0.229099,0.725193 0.230821,0.266995 0.639065,0.266995 0.420302,0 0.644234,-0.258382 0.225654,-0.260105 0.225654,-0.733806 z m 1.925809,1.224732 v -1.181668 q 0,-0.184313 -0.03617,-0.285943 -0.03617,-0.101631 -0.115411,-0.146417 -0.07924,-0.04479 -0.232544,-0.04479 -0.223932,0 -0.353123,0.153306 -0.129191,0.153307 -0.129191,0.42547 v 1.080038 h -0.310062 v -1.465889 q 0,-0.325562 -0.01033,-0.397909 h 0.292833 q 0.0017,0.0086 0.0034,0.04651 0.0017,0.0379 0.0034,0.08785 0.0034,0.04823 0.0069,0.184313 h 0.0052 q 0.106798,-0.192926 0.246325,-0.272163 0.141249,-0.08096 0.349677,-0.08096 0.306614,0 0.447863,0.153307 0.142971,0.151584 0.142971,0.502984 v 1.241958 z m 1.016304,-0.866442 q 0,0.320394 0.132636,0.494372 0.132636,0.173977 0.387573,0.173977 0.201539,0 0.322117,-0.08096 0.122301,-0.08096 0.165365,-0.204983 l 0.272162,0.07752 q -0.167087,0.440972 -0.759644,0.440972 -0.413411,0 -0.630452,-0.246324 -0.215319,-0.246325 -0.215319,-0.732084 0,-0.461643 0.215319,-0.707967 0.217041,-0.246325 0.618395,-0.246325 0.821655,0 0.821655,0.990466 v 0.04134 z M 29.68456,43.007356 Q 29.65872,42.7128 29.534699,42.578442 29.410675,42.44236 29.178131,42.44236 q -0.225654,0 -0.35829,0.151585 -0.130914,0.149861 -0.141249,0.413411 z m 3.648359,0.434083 q 0,0.335897 -0.26355,0.520209 -0.261827,0.184313 -0.738973,0.184313 -0.887113,0 -1.028362,-0.616672 l 0.318672,-0.06374 q 0.05512,0.218764 0.234266,0.322117 0.179145,0.10163 0.487482,0.10163 0.318671,0 0.490926,-0.10852 0.173977,-0.110243 0.173977,-0.322117 0,-0.118856 -0.05512,-0.192925 -0.0534,-0.07407 -0.151584,-0.122301 -0.09819,-0.04823 -0.234267,-0.08096 -0.136081,-0.03273 -0.301446,-0.07062 -0.287666,-0.06373 -0.437527,-0.127468 -0.14814,-0.06374 -0.234267,-0.141249 -0.08613,-0.07924 -0.132636,-0.184313 -0.04479,-0.105075 -0.04479,-0.241157 0,-0.311781 0.237712,-0.480591 0.239434,-0.16881 0.683852,-0.16881 0.413412,0 0.632175,0.127469 0.218764,0.125746 0.306614,0.430637 l -0.323839,0.05684 q -0.0534,-0.192925 -0.203261,-0.279053 -0.149862,-0.08785 -0.415134,-0.08785 -0.291111,0 -0.444418,0.09646 -0.153307,0.09646 -0.153307,0.287666 0,0.111965 0.05857,0.186035 0.06029,0.07235 0.172255,0.124024 0.111966,0.04995 0.44614,0.124023 0.111966,0.02584 0.222209,0.0534 0.111966,0.02584 0.213596,0.06373 0.10163,0.03617 0.18948,0.08613 0.08957,0.04995 0.15503,0.122301 0.06546,0.07235 0.10163,0.170532 0.0379,0.09818 0.0379,0.230822 z m 0.707968,-0.875055 q 0.09991,-0.18259 0.239434,-0.266995 0.141249,-0.08613 0.356568,-0.08613 0.303168,0 0.44614,0.151585 0.144694,0.149861 0.144694,0.504706 v 1.241958 H 34.915941 V 42.92984 q 0,-0.196371 -0.03617,-0.291111 -0.03617,-0.09646 -0.118856,-0.141249 -0.08268,-0.04479 -0.229099,-0.04479 -0.218764,0 -0.3514,0.151584 -0.130914,0.151584 -0.130914,0.408244 v 1.098986 h -0.310058 v -2.556262 h 0.310058 v 0.664904 q 0,0.105075 -0.0069,0.217041 -0.0052,0.111965 -0.0069,0.129191 z m 3.229779,0.611505 q 0,0.489204 -0.215318,0.728638 -0.215319,0.239434 -0.625286,0.239434 -0.408244,0 -0.616672,-0.248047 -0.208428,-0.249769 -0.208428,-0.720025 0,-0.964628 0.835436,-0.964628 0.427192,0 0.62873,0.23599 0.201538,0.234266 0.201538,0.728638 z m -0.325561,0 q 0,-0.385851 -0.115411,-0.559829 -0.113688,-0.1757 -0.384129,-0.1757 -0.272162,0 -0.394463,0.179145 -0.120579,0.177423 -0.120579,0.556384 0,0.368625 0.118856,0.55466 0.120579,0.184313 0.377238,0.184313 0.279053,0 0.397909,-0.179145 0.120579,-0.179145 0.120579,-0.559828 z m 1.427992,0.919841 q -0.153307,0.04134 -0.313504,0.04134 -0.37207,0 -0.37207,-0.422025 v -1.24368 h -0.215319 v -0.225654 h 0.227377 l 0.09129,-0.416857 h 0.206705 v 0.416857 h 0.34451 v 0.225654 h -0.34451 v 1.176501 q 0,0.134359 0.04306,0.18948 0.04479,0.0534 0.153307,0.0534 0.06201,0 0.179145,-0.02412 z"
       id="text8"
       style="font-size:3.52778px;font-family:'Liberation Sans';-inkscape-font-specification:'Liberation Sans, Normal';text-anchor:middle"
       inkscape:label="ONESHOT_LABEL"
       aria-label="One Shot" />
    <path
       d="M 8.0177811,74.889748 7.3873282,73.882057 H 6.6311293 v 1.007691 H 6.3021224 v -2.427072 h 1.1420499 q 0.4099667,0 0.6321755,0.184313 0.2239313,0.18259 0.2239313,0.509874 0,0.270441 -0.1584745,0.454753 -0.1567519,0.184313 -0.4340823,0.232544 l 0.6890195,1.045588 z m -0.048231,-1.729439 q 0,-0.211874 -0.1446941,-0.322117 Q 7.6818841,72.726226 7.4114439,72.726226 H 6.6311293 v 0.895726 h 0.794095 q 0.2601049,0 0.4013539,-0.120579 0.1429715,-0.122301 0.1429715,-0.341064 z m 1.3039696,1.76389 q -0.2807754,0 -0.4220245,-0.14814 -0.141249,-0.148139 -0.141249,-0.406521 0,-0.289388 0.1894804,-0.444418 0.1912029,-0.155029 0.61495,-0.165364 l 0.4185793,-0.0069 v -0.10163 q 0,-0.227376 -0.096463,-0.325562 -0.096463,-0.09819 -0.3031686,-0.09819 -0.2084284,0 -0.3031686,0.07062 -0.09474,0.07062 -0.1136882,0.225654 l -0.3238392,-0.02928 q 0.079237,-0.502984 0.7475862,-0.502984 0.3514,0 0.5288226,0.161919 0.177422,0.160197 0.177422,0.465089 v 0.802707 q 0,0.137804 0.03617,0.208429 0.03617,0.0689 0.137804,0.0689 0.04479,0 0.10163,-0.01206 v 0.192925 q -0.117133,0.02756 -0.239434,0.02756 -0.172255,0 -0.251492,-0.08957 -0.077515,-0.0913 -0.08785,-0.284221 h -0.010335 q -0.1188558,0.213596 -0.2773303,0.303169 -0.156752,0.08785 -0.3824059,0.08785 z m 0.070624,-0.232544 q 0.1705324,0 0.3031686,-0.07751 0.1326363,-0.07752 0.2084284,-0.211874 0.077515,-0.136081 0.077515,-0.279053 v -0.153306 l -0.3393421,0.0069 q -0.2187637,0.0034 -0.3324519,0.04479 -0.1119657,0.04134 -0.1722549,0.127469 -0.060289,0.08613 -0.060289,0.225654 0,0.151584 0.08096,0.234266 0.082682,0.08268 0.2342666,0.08268 z m 2.1325152,0.184312 q -0.153306,0.04134 -0.313504,0.04134 -0.37207,0 -0.37207,-0.422024 v -1.24368 H 10.575766 V 73.02595 h 0.227377 l 0.09129,-0.416857 h 0.206706 v 0.416857 h 0.344509 v 0.225654 h -0.344509 v 1.176501 q 0,0.134358 0.04306,0.18948 0.04479,0.0534 0.153307,0.0534 0.06201,0 0.179145,-0.02412 z m 0.501262,-0.852661 q 0,0.320394 0.132636,0.494371 0.132636,0.173978 0.387574,0.173978 0.201538,0 0.322116,-0.08096 0.122301,-0.08096 0.165365,-0.204984 l 0.272163,0.07752 q -0.167087,0.440973 -0.759644,0.440973 -0.413412,0 -0.630453,-0.246325 -0.215319,-0.246324 -0.215319,-0.732083 0,-0.461643 0.215319,-0.707968 0.217041,-0.246324 0.618395,-0.246324 0.821656,0 0.821656,0.990465 v 0.04134 z m 1.009414,-0.237712 q -0.02584,-0.294556 -0.149862,-0.428915 -0.124024,-0.136081 -0.356568,-0.136081 -0.225654,0 -0.35829,0.151584 -0.130914,0.149862 -0.141249,0.413412 z"
       id="text10"
       style="font-size:3.52778px;font-family:'Liberation Sans';-inkscape-font-specification:'Liberation Sans, Normal';text-anchor:middle"
       inkscape:label="RATE_CV_LABEL"
       aria-label="Rate" />
    <g
       id="text11"
       style="font-size:3.52778px;font-family:'Liberation Sans';-inkscape-font-specification:'Liberation Sans, Normal';text-anchor:middle"
       inkscape:label="RATE_CV_LABEL"
       aria-label="OneShot&#10;CV">
      <path
         d="m 25.988786,73.135848 q 0,0.380684 -0.146417,0.666627 -0.144694,0.285943 -0.416857,0.43925 -0.272162,0.153306 -0.64251,0.153306 -0.373794,0 -0.645956,-0.151584 -0.27044,-0.151584 -0.413412,-0.437527 -0.142972,-0.287666 -0.142972,-0.670072 0,-0.582221 0.318672,-0.909506 0.318672,-0.329006 0.887113,-0.329006 0.370348,0 0.64251,0.148139 0.272163,0.146416 0.415135,0.427192 0.144694,0.280775 0.144694,0.663181 z m -0.335897,0 q 0,-0.45303 -0.227377,-0.711412 -0.225654,-0.258383 -0.639065,-0.258383 -0.416857,0 -0.644234,0.254937 -0.227376,0.254938 -0.227376,0.714858 0,0.456476 0.229099,0.725193 0.230821,0.266995 0.639066,0.266995 0.420301,0 0.644233,-0.258382 0.225654,-0.260105 0.225654,-0.733806 z m 1.925809,1.224732 v -1.181668 q 0,-0.184313 -0.03617,-0.285943 -0.03617,-0.101631 -0.115411,-0.146417 -0.07924,-0.04479 -0.232544,-0.04479 -0.223931,0 -0.353123,0.153307 -0.129191,0.153307 -0.129191,0.425469 v 1.080038 h -0.310059 v -1.465889 q 0,-0.325561 -0.01034,-0.397908 h 0.292833 q 0.0017,0.0086 0.0034,0.04651 0.0017,0.0379 0.0034,0.08785 0.0034,0.04823 0.0069,0.184313 h 0.0052 q 0.106798,-0.192925 0.246325,-0.272163 0.141249,-0.08096 0.349677,-0.08096 0.306614,0 0.447863,0.153306 0.142972,0.151585 0.142972,0.502985 v 1.241957 z m 1.016304,-0.866442 q 0,0.320394 0.132636,0.494372 0.132636,0.173977 0.387574,0.173977 0.201538,0 0.322116,-0.08096 0.122301,-0.08096 0.165365,-0.204984 l 0.272163,0.07752 q -0.167088,0.440972 -0.759644,0.440972 -0.413412,0 -0.630453,-0.246324 -0.215319,-0.246325 -0.215319,-0.732083 0,-0.461643 0.215319,-0.707968 0.217041,-0.246324 0.618395,-0.246324 0.821656,0 0.821656,0.990465 v 0.04134 z m 1.009414,-0.237711 q -0.02584,-0.294556 -0.149862,-0.428915 -0.124024,-0.136081 -0.356568,-0.136081 -0.225654,0 -0.35829,0.151584 -0.130914,0.149862 -0.141249,0.413412 z m 2.668228,0.434082 q 0,0.335897 -0.26355,0.52021 -0.261827,0.184312 -0.738973,0.184312 -0.887113,0 -1.028362,-0.616672 l 0.318672,-0.06373 q 0.05512,0.218763 0.234266,0.322116 0.179145,0.101631 0.487482,0.101631 0.318671,0 0.490926,-0.108521 0.173978,-0.110243 0.173978,-0.322117 0,-0.118855 -0.05512,-0.192925 -0.0534,-0.07407 -0.151584,-0.122301 -0.09819,-0.04823 -0.234267,-0.08096 -0.136081,-0.03273 -0.301446,-0.07062 -0.287666,-0.06374 -0.437527,-0.127469 -0.14814,-0.06373 -0.234267,-0.141249 -0.08613,-0.07924 -0.132636,-0.184313 -0.04479,-0.105075 -0.04479,-0.241157 0,-0.311781 0.237712,-0.480591 0.239434,-0.168809 0.683852,-0.168809 0.413412,0 0.632175,0.127468 0.218764,0.125746 0.306614,0.430637 l -0.323839,0.05685 q -0.0534,-0.192926 -0.203261,-0.279053 -0.149862,-0.08785 -0.415134,-0.08785 -0.291111,0 -0.444418,0.09646 -0.153307,0.09646 -0.153307,0.287666 0,0.111966 0.05857,0.186035 0.06029,0.07235 0.172255,0.124024 0.111966,0.04995 0.44614,0.124023 0.111966,0.02584 0.222209,0.0534 0.111966,0.02584 0.213596,0.06373 0.10163,0.03617 0.18948,0.08613 0.08957,0.04995 0.15503,0.122301 0.06546,0.07235 0.10163,0.170532 0.0379,0.09819 0.0379,0.230822 z m 0.707968,-0.875055 q 0.09991,-0.18259 0.239434,-0.266995 0.141249,-0.08613 0.356568,-0.08613 0.303168,0 0.44614,0.151584 0.144694,0.149862 0.144694,0.504707 v 1.241957 h -0.311781 v -1.181668 q 0,-0.196371 -0.03617,-0.291111 -0.03617,-0.09646 -0.118856,-0.141249 -0.08268,-0.04479 -0.229099,-0.04479 -0.218764,0 -0.3514,0.151584 -0.130914,0.151584 -0.130914,0.408244 v 1.098986 h -0.310058 v -2.556262 h 0.310058 v 0.664904 q 0,0.105075 -0.0069,0.217041 -0.0052,0.111966 -0.0069,0.129191 z m 3.229778,0.611505 q 0,0.489204 -0.215318,0.728638 -0.215319,0.239434 -0.625285,0.239434 -0.408245,0 -0.616673,-0.248047 -0.208428,-0.249769 -0.208428,-0.720025 0,-0.964627 0.835436,-0.964627 0.427192,0 0.62873,0.235989 0.201538,0.234266 0.201538,0.728638 z m -0.325561,0 q 0,-0.385851 -0.115411,-0.559828 -0.113688,-0.1757 -0.384129,-0.1757 -0.272162,0 -0.394463,0.179145 -0.120579,0.177422 -0.120579,0.556383 0,0.368625 0.118856,0.554661 0.120579,0.184312 0.377238,0.184312 0.279053,0 0.397909,-0.179145 0.120579,-0.179145 0.120579,-0.559828 z m 1.427993,0.919841 q -0.153307,0.04134 -0.313504,0.04134 -0.37207,0 -0.37207,-0.422024 v -1.243681 h -0.215319 v -0.225653 h 0.227377 l 0.0913,-0.416857 h 0.206706 v 0.416857 h 0.344509 v 0.225653 h -0.344509 v 1.176501 q 0,0.134359 0.04306,0.189481 0.04479,0.0534 0.153307,0.0534 0.06201,0 0.179145,-0.02412 z"
         id="path5" />
      <path
         d="m 29.290051,76.575778 q -0.403077,0 -0.627008,0.260105 -0.223931,0.258382 -0.223931,0.70969 0,0.44614 0.232544,0.718303 0.234266,0.27044 0.632175,0.27044 0.509875,0 0.766534,-0.504706 l 0.268718,0.134358 q -0.149862,0.313504 -0.422025,0.477146 -0.27044,0.163642 -0.62873,0.163642 -0.366903,0 -0.63562,-0.151584 -0.266995,-0.153307 -0.408245,-0.435805 -0.139526,-0.28422 -0.139526,-0.671794 0,-0.580499 0.313504,-0.909506 0.313504,-0.329006 0.868165,-0.329006 0.387573,0 0.647678,0.151584 0.260105,0.151584 0.382406,0.449585 l -0.311782,0.103353 q -0.0844,-0.211873 -0.272162,-0.323839 -0.186036,-0.111966 -0.442695,-0.111966 z m 2.530424,2.194528 H 31.47941 l -0.990465,-2.427072 h 0.346232 l 0.671794,1.708769 0.144694,0.428914 0.144694,-0.428914 0.668349,-1.708769 h 0.346233 z"
         id="path6" />
    </g>
    <path
       d="m 25.428695,56.535988 q -0.403074,0 -0.627004,0.260104 -0.22393,0.258381 -0.22393,0.709689 0,0.446138 0.232542,0.718299 0.234265,0.270441 0.632175,0.270441 0.509873,0 0.766532,-0.504706 l 0.268716,0.134358 q -0.149863,0.313502 -0.422024,0.477144 -0.270438,0.163642 -0.628729,0.163642 -0.3669,0 -0.635616,-0.151585 -0.266997,-0.153305 -0.408245,-0.435803 -0.139525,-0.284218 -0.139525,-0.67179 0,-0.580499 0.313502,-0.909503 0.313502,-0.329007 0.868162,-0.329007 0.387572,0 0.647676,0.151583 0.260104,0.151585 0.382405,0.449585 l -0.31178,0.103352 q -0.08441,-0.211873 -0.272161,-0.323837 -0.186037,-0.111966 -0.442696,-0.111966 z m 1.512396,2.926601 q -0.127469,0 -0.213596,-0.01894 v -0.232545 q 0.06546,0.01034 0.144693,0.01034 0.289388,0 0.458197,-0.425469 l 0.02928,-0.07407 -0.738971,-1.855179 h 0.330729 l 0.39274,1.030081 q 0.0086,0.0241 0.02066,0.05857 0.01206,0.03273 0.07751,0.22393 0.06546,0.191204 0.07062,0.213596 l 0.120579,-0.339342 0.408241,-1.186831 h 0.327284 l -0.716578,1.863791 q -0.115412,0.298001 -0.215318,0.442693 -0.09991,0.146418 -0.222208,0.217043 -0.120579,0.07234 -0.273884,0.07234 z m 1.908577,-1.67259 q 0,0.37207 0.117134,0.551214 0.117131,0.179144 0.35312,0.179144 0.165365,0 0.275606,-0.08957 0.111967,-0.08957 0.137803,-0.275606 l 0.313505,0.02066 q -0.03617,0.268719 -0.2291,0.428914 -0.192924,0.160197 -0.489201,0.160197 -0.391017,0 -0.597723,-0.246324 -0.204983,-0.248047 -0.204983,-0.721747 0,-0.470252 0.206705,-0.716576 0.206706,-0.248047 0.592556,-0.248047 0.285943,0 0.473699,0.14814 0.189479,0.148138 0.237712,0.408242 l -0.318672,0.0241 q -0.0241,-0.15503 -0.122301,-0.246324 -0.09818,-0.0913 -0.27905,-0.0913 -0.246325,0 -0.356566,0.163643 -0.110244,0.163639 -0.110244,0.551211 z m 1.527895,0.940509 v -2.556253 h 0.310059 v 2.556253 z m 0.782036,-2.259976 v -0.296277 h 0.310058 v 0.296277 z m 0,2.259976 v -1.863791 h 0.310058 v 1.863791 z m 1.968866,0 v -1.181664 q 0,-0.184314 -0.03617,-0.285943 -0.03617,-0.101629 -0.115411,-0.146415 -0.07924,-0.04479 -0.232545,-0.04479 -0.22393,0 -0.353121,0.153305 -0.12919,0.153307 -0.12919,0.425468 v 1.080035 H 31.95197 V 57.26462 q 0,-0.32556 -0.01035,-0.397907 h 0.292833 q 0.0019,0.0086 0.0034,0.04651 0.0019,0.0379 0.0034,0.08785 0.0034,0.04823 0.0069,0.184311 h 0.0052 q 0.106799,-0.192923 0.246324,-0.272161 0.141248,-0.08096 0.349676,-0.08096 0.306613,0 0.44786,0.153308 0.142973,0.151582 0.142973,0.502981 v 1.241954 z m 1.484833,0.732081 q -0.30489,0 -0.485759,-0.120579 -0.180866,-0.118853 -0.232542,-0.339341 l 0.31178,-0.04479 q 0.03101,0.129191 0.13608,0.198093 0.106799,0.07063 0.279053,0.07063 0.463365,0 0.463365,-0.542603 v -0.299722 h -0.0034 q -0.08785,0.179144 -0.241157,0.270438 -0.153308,0.08957 -0.358289,0.08957 -0.342786,0 -0.504706,-0.227375 -0.160197,-0.227375 -0.160197,-0.714853 0,-0.494372 0.172255,-0.728636 0.173976,-0.23599 0.527097,-0.23599 0.198094,0 0.342786,0.09129 0.146418,0.08957 0.225656,0.256659 h 0.0034 q 0,-0.05168 0.0069,-0.179144 0.0069,-0.127468 0.01378,-0.139525 h 0.294555 q -0.01035,0.09302 -0.01035,0.38585 v 1.424543 q 0,0.785479 -0.780312,0.785479 z m 0.471977,-1.663975 q 0,-0.227378 -0.06201,-0.39102 -0.06201,-0.165362 -0.175699,-0.251489 -0.111964,-0.08785 -0.254937,-0.08785 -0.237709,0 -0.346231,0.172255 -0.108519,0.172254 -0.108519,0.558104 0,0.382402 0.10163,0.549489 0.101629,0.167087 0.347953,0.167087 0.146418,0 0.260104,-0.08613 0.113689,-0.08613 0.175699,-0.246325 0.06201,-0.161917 0.06201,-0.384124 z"
       id="text6"
       style="font-size:13.3333px;font-family:'Liberation Sans';-inkscape-font-specification:'Liberation Sans, Normal';text-align:center;text-anchor:middle;white-space:pre;stroke-width:0.247;stroke-linecap:round;stroke-linejoin:round"
       aria-label="Cycling" />
    <path
       d="m 76.068404,357.92409 -2.382807,-3.80858 h -2.858065 v 3.80858 h -1.243487 v -9.17315 h 4.316396 q 1.549475,0 2.389317,0.69661 0.846352,0.6901 0.846352,1.92708 0,1.02213 -0.598957,1.71874 -0.592447,0.69662 -1.640621,0.87891 l 2.60416,3.95181 z m -0.182291,-6.53644 q 0,-0.80078 -0.546874,-1.21745 -0.540363,-0.42317 -1.562496,-0.42317 h -2.949211 v 3.38541 h 3.001294 q 0.983071,0 1.516923,-0.45573 0.540364,-0.46224 0.540364,-1.28906 z m 4.029937,3.26171 q 0,1.21093 0.501301,1.86848 0.501301,0.65756 1.46484,0.65756 0.761717,0 1.217445,-0.30599 0.462238,-0.30599 0.624998,-0.77474 l 1.028643,0.29297 q -0.631508,1.66666 -2.871086,1.66666 -1.562496,0 -2.382807,-0.93099 -0.8138,-0.93099 -0.8138,-2.76692 0,-1.74479 0.8138,-2.67577 0.820311,-0.93099 2.337234,-0.93099 3.105461,0 3.105461,3.74348 v 0.15625 z m 3.815094,-0.89844 q -0.09766,-1.11327 -0.566404,-1.62109 -0.468749,-0.51432 -1.347653,-0.51432 -0.852863,0 -1.354163,0.57292 -0.494791,0.5664 -0.533853,1.56249 z m 7.988262,2.22656 q 0,0.99609 -0.755207,1.53646 -0.748696,0.54036 -2.102859,0.54036 -1.315101,0 -2.031245,-0.42969 -0.709633,-0.43619 -0.924477,-1.35416 l 1.035154,-0.20182 q 0.149739,0.5664 0.618488,0.83333 0.468749,0.26041 1.30208,0.26041 0.891925,0 1.30208,-0.27343 0.416666,-0.27344 0.416666,-0.82031 0,-0.41667 -0.286458,-0.67708 -0.286457,-0.26042 -0.924477,-0.42969 l -0.839841,-0.22135 q -1.009112,-0.26042 -1.438799,-0.50782 -0.423176,-0.2539 -0.664061,-0.61197 -0.240884,-0.35808 -0.240884,-0.87891 0,-0.96354 0.683592,-1.46484 0.690102,-0.50781 2.005203,-0.50781 1.165362,0 1.848954,0.41016 0.690102,0.41015 0.872393,1.3151 l -1.054685,0.13021 q -0.09766,-0.46875 -0.527342,-0.71615 -0.423176,-0.2539 -1.13932,-0.2539 -0.794269,0 -1.171872,0.24088 -0.377603,0.24089 -0.377603,0.72917 0,0.29947 0.156249,0.49479 0.15625,0.19531 0.462239,0.33203 0.305989,0.13671 1.289059,0.3776 0.930987,0.23437 1.341142,0.4362 0.410156,0.19531 0.64453,0.43619 0.240885,0.24089 0.371093,0.5599 0.130208,0.3125 0.130208,0.71614 z m 2.278639,-1.32812 q 0,1.21093 0.501301,1.86848 0.501301,0.65756 1.46484,0.65756 0.761717,0 1.217445,-0.30599 0.462238,-0.30599 0.624998,-0.77474 l 1.028643,0.29297 q -0.631508,1.66666 -2.871086,1.66666 -1.562496,0 -2.382807,-0.93099 -0.8138,-0.93099 -0.8138,-2.76692 0,-1.74479 0.8138,-2.67577 0.820311,-0.93099 2.337234,-0.93099 3.105461,0 3.105461,3.74348 v 0.15625 z m 3.815094,-0.89844 q -0.09766,-1.11327 -0.566404,-1.62109 -0.468749,-0.51432 -1.347653,-0.51432 -0.852863,0 -1.354163,0.57292 -0.494791,0.5664 -0.533853,1.56249 z m 5.410141,4.12109 q -0.57942,0.15625 -1.18489,0.15625 -1.40625,0 -1.40625,-1.59505 v -4.70051 h -0.813797 v -0.85286 h 0.859377 l 0.34505,-1.57552 h 0.78125 v 1.57552 h 1.30208 v 0.85286 h -1.30208 v 4.4466 q 0,0.50782 0.16276,0.71615 0.16927,0.20182 0.57942,0.20182 0.23438,0 0.67708,-0.0911 z m 10.65753,-3.47656 q 0,1.84896 -0.8138,2.7539 -0.8138,0.90495 -2.36328,0.90495 -1.54296,0 -2.33072,-0.9375 -0.78776,-0.94401 -0.78776,-2.72135 0,-3.64582 3.15754,-3.64582 1.61458,0 2.3763,0.89192 0.76172,0.88542 0.76172,2.7539 z m -1.23047,0 q 0,-1.45833 -0.4362,-2.11588 -0.42968,-0.66406 -1.45182,-0.66406 -1.02864,0 -1.49088,0.67708 -0.45572,0.67058 -0.45572,2.10286 0,1.39323 0.44921,2.09635 0.45573,0.69662 1.42578,0.69662 1.05469,0 1.5039,-0.67709 0.45573,-0.67708 0.45573,-2.11588 z m 2.71484,3.52864 v -5.40363 q 0,-0.74219 -0.0391,-1.64062 h 1.10677 q 0.0521,1.19791 0.0521,1.4388 h 0.026 q 0.27995,-0.90495 0.64453,-1.23698 0.36458,-0.33203 1.02864,-0.33203 0.23438,0 0.47526,0.0651 v 1.07422 q -0.23437,-0.0651 -0.625,-0.0651 -0.72916,0 -1.11327,0.6315 -0.38412,0.625 -0.38412,1.79688 v 3.67186 z m -70.468572,8.5091 v 8.15753 h -1.236976 v -8.15753 h -3.151034 v -1.01563 h 7.539043 v 1.01563 z m 3.886709,8.15753 v -5.40364 q 0,-0.74218 -0.03906,-1.64062 h 1.106768 q 0.05208,1.19792 0.05208,1.4388 h 0.02604 q 0.279947,-0.90494 0.64453,-1.23697 0.364582,-0.33203 1.028643,-0.33203 0.234374,0 0.475259,0.0651 v 1.07422 q -0.234374,-0.0651 -0.624998,-0.0651 -0.729165,0 -1.113279,0.63151 -0.384113,0.625 -0.384113,1.79687 v 3.67187 z m 4.407541,-8.54165 v -1.11979 h 1.171872 v 1.11979 z m 0,8.54165 v -7.04426 h 1.171872 v 7.04426 z m 5.638007,2.76692 q -1.152341,0 -1.835933,-0.45573 -0.683592,-0.44922 -0.878904,-1.28255 l 1.178382,-0.16927 q 0.117187,0.48828 0.514322,0.7487 0.403645,0.26692 1.054685,0.26692 1.751297,0 1.751297,-2.05077 v -1.13281 h -0.01302 q -0.332031,0.67708 -0.911457,1.02213 -0.579425,0.33854 -1.354163,0.33854 -1.295569,0 -1.907547,-0.85937 -0.605467,-0.85938 -0.605467,-2.70182 0,-1.86848 0.65104,-2.7539 0.65755,-0.89192 1.992182,-0.89192 0.748696,0 1.29557,0.34505 0.553384,0.33854 0.852862,0.97005 h 0.01302 q 0,-0.19531 0.02604,-0.67708 0.02604,-0.48177 0.05208,-0.52735 h 1.113278 q -0.03906,0.35157 -0.03906,1.45833 v 5.3841 q 0,2.96875 -2.949211,2.96875 z m 1.783849,-6.28905 q 0,-0.85937 -0.234374,-1.47786 -0.234374,-0.625 -0.664061,-0.95052 -0.423176,-0.33203 -0.963539,-0.33203 -0.898435,0 -1.308591,0.65104 -0.410155,0.65104 -0.410155,2.10937 0,1.44531 0.384114,2.07682 0.384113,0.63151 1.315101,0.63151 0.553384,0 0.98307,-0.32552 0.429687,-0.32552 0.664061,-0.93099 0.234374,-0.61198 0.234374,-1.45182 z m 5.631497,6.28905 q -1.152341,0 -1.835933,-0.45573 -0.683592,-0.44922 -0.878904,-1.28255 l 1.178382,-0.16927 q 0.117188,0.48828 0.514322,0.7487 0.403645,0.26692 1.054685,0.26692 1.751297,0 1.751297,-2.05077 v -1.13281 h -0.01302 q -0.332031,0.67708 -0.911456,1.02213 -0.579426,0.33854 -1.354164,0.33854 -1.295569,0 -1.907547,-0.85937 -0.605467,-0.85938 -0.605467,-2.70182 0,-1.86848 0.65104,-2.7539 0.65755,-0.89192 1.992182,-0.89192 0.748696,0 1.29557,0.34505 0.553384,0.33854 0.852862,0.97005 h 0.01302 q 0,-0.19531 0.02604,-0.67708 0.02604,-0.48177 0.05208,-0.52735 h 1.113279 q -0.03906,0.35157 -0.03906,1.45833 v 5.3841 q 0,2.96875 -2.949211,2.96875 z m 1.783849,-6.28905 q 0,-0.85937 -0.234374,-1.47786 -0.234374,-0.625 -0.664061,-0.95052 -0.423176,-0.33203 -0.963539,-0.33203 -0.898435,0 -1.30859,0.65104 -0.410156,0.65104 -0.410156,2.10937 0,1.44531 0.384114,2.07682 0.384114,0.63151 1.315101,0.63151 0.553384,0 0.98307,-0.32552 0.429687,-0.32552 0.664061,-0.93099 0.234374,-0.61198 0.234374,-1.45182 z m 3.860666,0.2474 q 0,1.21093 0.501301,1.86848 0.501301,0.65755 1.46484,0.65755 0.761717,0 1.217445,-0.30599 0.462238,-0.30599 0.624998,-0.77474 l 1.028644,0.29297 q -0.631509,1.66667 -2.871087,1.66667 -1.562496,0 -2.382806,-0.93099 -0.8138,-0.93099 -0.8138,-2.76692 0,-1.74479 0.8138,-2.67578 0.82031,-0.93098 2.337233,-0.93098 3.105461,0 3.105461,3.74348 v 0.15625 z m 3.815095,-0.89844 q -0.09766,-1.11328 -0.566405,-1.62109 -0.468749,-0.51432 -1.347653,-0.51432 -0.852862,0 -1.354163,0.57291 -0.494791,0.56641 -0.533853,1.5625 z m 2.727856,4.17317 v -5.40364 q 0,-0.74218 -0.03906,-1.64062 h 1.106768 q 0.05208,1.19792 0.05208,1.4388 h 0.02604 q 0.279947,-0.90494 0.64453,-1.23697 0.364582,-0.33203 1.028643,-0.33203 0.234374,0 0.475259,0.0651 v 1.07422 q -0.234374,-0.0651 -0.624998,-0.0651 -0.729165,0 -1.113279,0.63151 -0.384113,0.625 -0.384113,1.79687 v 3.67187 z m 8.046856,-3.46354 q 0,-1.8815 0.585936,-3.37889 0.592446,-1.4974 1.816402,-2.81901 h 1.132809 q -1.217445,1.35417 -1.79036,2.8776 -0.566405,1.52343 -0.566405,3.33332 0,1.80339 0.559895,3.32031 0.566405,1.51692 1.79687,2.89062 h -1.132809 q -1.230466,-1.32812 -1.816402,-2.82552 -0.585936,-1.5039 -0.585936,-3.37238 z m 13.346321,-1.16536 q 0,1.4388 -0.553384,2.51953 -0.546873,1.08072 -1.575516,1.66015 -1.028644,0.57943 -2.42838,0.57943 -1.412757,0 -2.4414,-0.57292 -1.022133,-0.57292 -1.562496,-1.65364 -0.540363,-1.08724 -0.540363,-2.53255 0,-2.20051 1.204424,-3.43749 1.204424,-1.24349 3.352856,-1.24349 1.399736,0 2.428379,0.5599 1.028644,0.55338 1.569007,1.61458 0.546873,1.06119 0.546873,2.5065 z m -1.269528,0 q 0,-1.71223 -0.859372,-2.68879 -0.852863,-0.97656 -2.415359,-0.97656 -1.575517,0 -2.43489,0.96354 -0.859372,0.96354 -0.859372,2.70181 0,1.72526 0.865883,2.74088 0.872393,1.00911 2.415358,1.00911 1.588538,0 2.43489,-0.97656 0.852862,-0.98307 0.852862,-2.77343 z m 7.278624,4.6289 v -4.46614 q 0,-0.69661 -0.13672,-1.08072 -0.13671,-0.38412 -0.43619,-0.55339 -0.29948,-0.16927 -0.87891,-0.16927 -0.84635,0 -1.33463,0.57943 -0.48828,0.57942 -0.48828,1.60807 v 4.08202 h -1.17187 v -5.54035 q 0,-1.23047 -0.0391,-1.50391 h 1.10677 q 0.007,0.0326 0.013,0.17578 0.007,0.14323 0.013,0.33204 0.013,0.18229 0.026,0.69661 h 0.0195 q 0.40364,-0.72917 0.93099,-1.02865 0.53385,-0.30598 1.32161,-0.30598 1.15885,0 1.6927,0.57942 0.54037,0.57292 0.54037,1.90104 v 4.694 z m 3.84114,-3.27473 q 0,1.21093 0.5013,1.86848 0.5013,0.65755 1.46484,0.65755 0.76172,0 1.21744,-0.30599 0.46224,-0.30599 0.625,-0.77474 l 1.02865,0.29297 q -0.63151,1.66667 -2.87109,1.66667 -1.5625,0 -2.38281,-0.93099 -0.8138,-0.93099 -0.8138,-2.76692 0,-1.74479 0.8138,-2.67578 0.82031,-0.93098 2.33724,-0.93098 3.10546,0 3.10546,3.74348 v 0.15625 z m 3.81509,-0.89844 q -0.0977,-1.11328 -0.5664,-1.62109 -0.46875,-0.51432 -1.34766,-0.51432 -0.85286,0 -1.35416,0.57291 -0.49479,0.56641 -0.53385,1.5625 z m 10.08461,1.64062 q 0,1.26953 -0.99609,1.96614 -0.98958,0.69662 -2.79296,0.69662 -3.35286,0 -3.88671,-2.33073 l 1.20442,-0.24088 q 0.20834,0.82682 0.88542,1.21744 0.67708,0.38412 1.84244,0.38412 1.20442,0 1.85546,-0.41016 0.65756,-0.41667 0.65756,-1.21744 0,-0.44922 -0.20834,-0.72917 -0.20182,-0.27995 -0.57291,-0.46224 -0.3711,-0.18229 -0.88542,-0.30599 -0.51432,-0.12369 -1.13932,-0.26692 -1.08723,-0.24089 -1.65364,-0.48177 -0.55989,-0.24089 -0.88541,-0.53386 -0.32552,-0.29947 -0.5013,-0.69661 -0.16927,-0.39713 -0.16927,-0.91145 0,-1.17839 0.89843,-1.81641 0.90495,-0.63802 2.58463,-0.63802 1.5625,0 2.38932,0.48177 0.82682,0.47526 1.15885,1.6276 l -1.22396,0.21485 q -0.20182,-0.72917 -0.76822,-1.05469 -0.56641,-0.33203 -1.56901,-0.33203 -1.10026,0 -1.67968,0.36458 -0.57943,0.36459 -0.57943,1.08724 0,0.42318 0.22135,0.70312 0.22787,0.27344 0.65104,0.46875 0.42318,0.18881 1.6862,0.46875 0.42317,0.0977 0.83984,0.20182 0.42317,0.0977 0.80729,0.24089 0.38411,0.13672 0.71614,0.32552 0.33854,0.1888 0.58594,0.46224 0.24739,0.27343 0.38411,0.64453 0.14323,0.37109 0.14323,0.87239 z m 2.67578,-3.30728 q 0.3776,-0.6901 0.90495,-1.00911 0.53385,-0.32552 1.34765,-0.32552 1.14583,0 1.68619,0.57291 0.54688,0.56641 0.54688,1.90755 v 4.694 h -1.17839 v -4.46614 q 0,-0.74218 -0.13672,-1.10026 -0.13671,-0.36458 -0.44921,-0.53385 -0.3125,-0.16927 -0.86589,-0.16927 -0.82682,0 -1.32812,0.57292 -0.49479,0.57291 -0.49479,1.54296 v 4.15364 h -1.17187 v -9.66144 h 1.17187 v 2.51302 q 0,0.39713 -0.026,0.82031 -0.0195,0.42317 -0.026,0.48828 z m 12.207,2.31119 q 0,1.84895 -0.8138,2.7539 -0.8138,0.90495 -2.36328,0.90495 -1.54296,0 -2.33072,-0.9375 -0.78776,-0.94401 -0.78776,-2.72135 0,-3.64582 3.15755,-3.64582 1.61458,0 2.37629,0.89192 0.76172,0.88542 0.76172,2.7539 z m -1.23047,0 q 0,-1.45833 -0.43619,-2.11588 -0.42969,-0.66406 -1.45182,-0.66406 -1.02865,0 -1.49088,0.67708 -0.45573,0.67057 -0.45573,2.10286 0,1.39323 0.44921,2.09635 0.45573,0.69661 1.42578,0.69661 1.05469,0 1.50391,-0.67708 0.45572,-0.67708 0.45572,-2.11588 z m 5.39712,3.47655 q -0.57942,0.15625 -1.18489,0.15625 -1.40625,0 -1.40625,-1.59504 v -4.70051 h -0.8138 v -0.85287 h 0.85938 l 0.34505,-1.57551 h 0.78125 v 1.57551 h 1.30208 v 0.85287 h -1.30208 v 4.4466 q 0,0.50781 0.16276,0.71614 0.16927,0.20183 0.57942,0.20183 0.23438,0 0.67708,-0.0911 z m 3.71094,-3.3854 q 0,1.8815 -0.59245,3.37889 -0.58594,1.4974 -1.80989,2.81901 h -1.13281 q 1.22395,-1.36719 1.79036,-2.8776 0.5664,-1.51692 0.5664,-3.33333 0,-1.8164 -0.57291,-3.33332 -0.56641,-1.51692 -1.78385,-2.8776 h 1.13281 q 1.23046,1.32812 1.8164,2.83203 0.58594,1.49739 0.58594,3.36587 z"
       id="text12"
       style="font-size:13.3333px;font-family:'Liberation Sans';-inkscape-font-specification:'Liberation Sans, Normal';text-align:center;text-anchor:middle;white-space:pre;stroke-width:0.933543;stroke-linecap:round;stroke-linejoin:round"
       transform="matrix(0.26458333,0,0,0.26458333,-4.7625002,0)"
       aria-label="Reset or&#10;Trigger (OneShot)" />
  </g>
  <g
     inkscape:groupmode="layer"
     id="layer1"
     inkscape:label="components"
     style="display:none">
    <circle
       style="fill:#ff0000;fill-opacity:1;stroke:none;stroke-width:0.247;stroke-linecap:round;stroke-linejoin:round"
       id="path1"
       cx="30.807909"
       cy="49.194626"
       r="2.6400936"
       inkscape:label="ONESHOT" />
    <circle
       style="fill:#ff00ff;fill-opacity:1;stroke:none;stroke-width:0.247;stroke-linecap:round;stroke-linejoin:round"
       id="path2"
       cx="20.32"
       cy="19.39427"
       r="2.0742533"
       inkscape:label="MODULATORLED" />
    <circle
       style="fill:#ff0000;fill-opacity:1;stroke:none;stroke-width:0.247;stroke-linecap:round;stroke-linejoin:round"
       id="path3"
       cx="20.32"
       cy="27.483858"
       r="3.3188055"
       inkscape:label="MODE" />
    <circle
       style="fill:#00ff00;fill-opacity:1;stroke:none;stroke-width:0.247;stroke-linecap:round;stroke-linejoin:round"
       id="path8"
       cx="9.8951159"
       cy="66.113342"
       r="1.7631154"
       inkscape:label="RATE_CV" />
    <circle
       style="fill:#ff0000;fill-opacity:1;stroke:none;stroke-width:0.247;stroke-linecap:round;stroke-linejoin:round"
       id="path4"
       cx="9.9911442"
       cy="49.106785"
       r="3.6299436"
       inkscape:label="RATE" />
    <circle
       style="fill:#00ff00;fill-opacity:1;stroke:none;stroke-width:0.247;stroke-linecap:round;stroke-linejoin:round"
       id="circle10"
       cx="30.532625"
       cy="66.113342"
       r="1.7631154"
       inkscape:label="ONESHOT_CV" />
    <circle
       style="fill:#00ff00;fill-opacity:1;stroke:none;stroke-width:0.247;stroke-linecap:round;stroke-linejoin:round"
       id="circle1"
       cx="20.32"
       cy="87.809196"
       r="1.7631154"
       inkscape:label="RESET" />
    <circle
       style="fill:#0000ff;fill-opacity:1;stroke:none;stroke-width:0.247;stroke-linecap:round;stroke-linejoin:round"
       id="circle2"
       cx="20.32"
       cy="110.03422"
       r="1.7631154"
       inkscape:label="MODULATORSIGNAL" />
  </g>
</svg>
